<?xml version="1.0" encoding="utf-8"?>
<!-- Generator: Adobe Illustrator 23.0.1, SVG Export Plug-In . SVG Version: 6.00 Build 0)  -->
<svg version="1.1" id="Layer_1" xmlns="http://www.w3.org/2000/svg" xmlns:xlink="http://www.w3.org/1999/xlink" x="0px" y="0px"
	 viewBox="0 0 305.9 75.7" style="enable-background:new 0 0 305.9 75.7;" xml:space="preserve">
<g>
	<path d="M12.2,4.2H27V58h33.6v13.5H12.2V4.2z"/>
	<path d="M64.9,38v-0.2C64.9,18.7,80,3,100.8,3c20.8,0,35.7,15.5,35.7,34.6v0.2c0,19.1-15.1,34.8-35.9,34.8
		C79.8,72.7,64.9,57.2,64.9,38z M121,38v-0.2c0-11.5-8.5-21.2-20.4-21.2c-11.9,0-20.2,9.4-20.2,21v0.2c0,11.5,8.5,21.2,20.4,21.2
		C112.7,59,121,49.6,121,38z"/>
	<path d="M146.7,38v-0.2C146.7,18.7,161.6,3,182,3c12.1,0,19.4,3.3,26.5,9.2l-9.3,11.3c-5.2-4.3-9.8-6.8-17.6-6.8
		c-10.8,0-19.3,9.5-19.3,21v0.2c0,12.3,8.5,21.4,20.4,21.4c5.4,0,10.2-1.3,13.9-4v-9.6h-14.9V32.7h29.2V62
		c-6.9,5.9-16.5,10.7-28.8,10.7C161.2,72.7,146.7,57.9,146.7,38z"/>
	<path d="M222.2,38v-0.2c0-19.1,15.1-34.8,35.9-34.8c20.8,0,35.7,15.5,35.7,34.6v0.2c0,19.1-15.1,34.8-35.9,34.8
		C237.1,72.7,222.2,57.2,222.2,38z M278.3,38v-0.2c0-11.5-8.5-21.2-20.4-21.2c-11.9,0-20.2,9.4-20.2,21v0.2
		c0,11.5,8.5,21.2,20.4,21.2C270,59,278.3,49.6,278.3,38z"/>
</g>
</svg>
